<svg width="44" height="44" viewBox="0 0 44 44" fill="none" xmlns="http://www.w3.org/2000/svg">
<path d="M18.2644 35.8224C17.7099 35.2679 16.8113 35.2679 16.2569 35.8224L12.5382 39.541C11.9838 40.0946 11.9838 40.9941 12.5382 41.5476C13.0887 42.0999 13.9884 42.1049 14.5457 41.5476L18.2644 37.8289C18.8188 37.2744 18.8188 36.3759 18.2644 35.8224ZM8.1773 25.7353C7.62376 25.1808 6.72514 25.1808 6.17072 25.7353L2.45205 29.4539C1.89762 30.0083 1.89762 30.907 2.45205 31.4614C3.00559 32.0148 3.90279 32.0172 4.45864 31.4614L8.1773 27.7427C8.73173 27.1884 8.73173 26.2897 8.1773 25.7353ZM14.9023 29.0974C14.3479 28.543 13.4493 28.5439 12.8948 29.0974L3.47043 38.5218C2.916 39.0762 2.916 39.9748 3.47043 40.5292C4.02468 41.0818 4.92152 41.0838 5.4779 40.5292L14.9023 31.1049C15.4567 30.5504 15.4567 29.6518 14.9023 29.0974ZM43.9278 1.8622L30.4778 43.0228C30.0976 44.1846 28.5187 44.3541 27.9017 43.2952L18.8569 27.7402C18.5713 27.2496 18.6059 26.6366 18.9439 26.1807L22.1915 21.8082L17.819 25.0559C17.3631 25.3938 16.7501 25.4284 16.2595 25.1428L0.704492 16.098C-0.350786 15.4842 -0.188449 13.9033 0.976827 13.5219L42.1376 0.0719794C43.2378 -0.287023 44.2884 0.757428 43.9278 1.8622V1.8622Z" fill="white"/>
</svg>
